<svg xmlns="http://www.w3.org/2000/svg">
    <path fill="#2e153b" d="M 43.763613,5.6166338 C 37.19107,11.210676
    39.381918,20.195046 54.498768,49.6909 c 21.470307,42.548619
    33.739053,67.80656 33.739053,70.51882 0,0.84759 -1.752678,0.33904
    -3.943525,-1.18661 -9.858815,-6.95017 -21.251223,-0.50854
    -21.032139,11.52712 0.219085,4.06839 2.409933,12.71372 5.038951,19.32487
    4.819865,12.37469 10.0779,17.12116 19.060375,17.12116 4.162605,0
    4.819867,1.01709 5.696202,10.51002 1.095428,13.05275 20.155805,60.0088
    26.509255,65.26381 6.79163,5.93307 11.83057,6.27211 20.37489,1.86468
    3.94351,-2.03419 7.44887,-4.40743 7.44887,-5.25501 0,-0.67806
    0.87635,-1.18662 1.75269,-1.18662 0.87633,0 3.94352,5.25501 6.57254,11.86616
    7.44888,17.46019 17.52678,22.54568 30.0146,14.91744 5.25805,-3.22081
    5.9153,-4.40743 4.81989,-11.3576 -0.43818,-4.2379 -1.75269,-9.15388
    -2.62904,-10.84905 -1.31449,-2.71226 -0.87633,-2.88178 4.16262,-1.86468
    7.2298,1.35613 16.65044,-4.57694 16.65044,-10.3405 0,-3.72936
    -4.3817,-14.91745 -8.54431,-22.03713 -3.50534,-5.93307 -13.80233,-28.13972
    -16.86952,-36.27651 l -2.8481,-7.79776 7.0107,6.78066 c 20.15581,19.32486
    27.38561,21.86761 37.46351,12.54421 3.06719,-2.88178 5.6962,-5.76356
    5.6962,-6.2721 -0.21908,-4.91598 -32.86272,-38.1412 -41.40702,-42.04007
    -4.60078,-2.20372 -6.13438,-4.0684 -6.35346,-8.64534 -0.21909,-5.93307
    -22.12755,-52.041541 -28.26193,-59.839296 -5.6962,-7.119688
    -11.83058,-10.001468 -17.74587,-8.306304 -4.60079,1.356131 -5.47713,0.847582
    -10.29699,-7.628238 -5.25802,-9.323402 -14.24051,-16.273575
    -20.81305,-16.273575 -8.982472,0 -16.212264,12.544214 -13.145083,23.054231 C
    95.905793,69.015771 91.085921,61.55705 79.9126,38.163785 65.014837,7.1422815
    53.841512,-3.0287031 43.763613,5.6166338 Z M 67.424768,27.992801 c
    3.286272,6.950171 18.622206,38.310708 34.177222,69.671244 15.55502,31.360535
    28.26194,57.805095 28.26194,58.822195 0,3.39032 -7.88705,5.59404
    -11.39242,3.22081 -1.75268,-1.18661 -9.8588,-15.76502 -18.18402,-32.54715 C
    92.18135,110.37778 76.626328,79.356272 66.11026,58.166722
    48.364393,23.076824 43.763613,10.363093 48.145308,6.9727651
    51.431581,4.5995354 61.728564,15.787619 67.424768,27.992801 Z m
    47.322322,16.44309 c 1.97174,1.695166 8.32522,14.917445 14.02141,29.32634
    5.6962,14.408895 12.70691,32.208119 15.55502,39.497329 5.91528,14.91744
    6.35346,18.30776 2.62901,21.18954 -3.06719,2.37323 -10.29698,2.71227
    -14.2405,0.67808 -3.94353,-1.86469 -33.519971,-78.655622
    -33.519971,-86.453377 0,-10.679535 6.353461,-12.374699 15.555031,-4.237912 z
    m 31.32911,21.189552 c 5.6962,6.780656 31.7673,60.856397 30.45279,63.399137
    -1.31452,2.88178 -8.10614,3.05129 -10.95424,0.16951 -3.50536,-3.55984
    -29.13828,-57.805089 -29.13828,-61.534449 0,-6.611141 4.81986,-7.62824
    9.63973,-2.034198 z M 82.760702,124.95619 c 1.752678,2.20371
    5.915289,10.17099 9.201565,17.79922 5.038945,11.69664 5.477113,14.23937
    2.848097,16.61261 -1.752679,1.52565 -5.258028,2.54274 -8.544305,2.20371
    -4.819865,-0.33903 -6.353459,-2.0342 -9.858815,-9.83195 -2.190847,-5.08549
    -4.60078,-14.06987 -5.03895,-20.00294 -1.095423,-9.83195 -0.876338,-10.51001
    3.286272,-10.51001 2.629017,0 6.134373,1.69516 8.106136,3.72936 z m
    81.718618,9.66243 c 2.84811,2.0342 4.38169,4.40743 3.50536,5.93308
    -1.09544,2.20371 -1.97177,2.20371 -8.54431,-0.16951 -6.35346,-2.37324
    -7.01071,-3.05131 -4.81986,-5.76357 3.06718,-3.89888 3.50535,-3.89888
    9.85881,0 z m 39.87342,21.52859 c 13.58327,13.73083 17.5268,19.15535
    17.08862,22.54568 -0.43817,3.39032 -1.97176,4.57694 -6.57254,4.91598
    -5.03895,0.50854 -7.88705,-1.52566 -23.00391,-17.46019 -18.40311,-19.49439
    -19.93671,-21.69811 -15.99318,-25.42746 5.69619,-5.25501 10.73516,-2.54275
    28.48101,15.42599 z M 146.51437,143.603 c -1.97176,2.03419 -3.50535,6.61113
    -3.50535,10.00146 0,4.57694 -1.09542,6.44163 -3.72445,6.95018
    -3.28626,0.67806 -3.94353,-0.33904 -4.16262,-5.25501 -0.21907,-3.39033
    -1.09541,-7.96728 -1.97175,-10.17099 -1.53359,-3.39033 -1.09542,-3.89888
    1.75268,-3.0513 2.19085,0.50855 5.91528,0.33904 8.54431,-0.50854
    2.8481,-0.84758 5.25803,-1.52566 5.6962,-1.52566 0.43816,-0.16951
    -0.87634,1.52566 -2.62902,3.55986 z m 13.36416,3.39032 c 2.62902,2.20372
    13.36418,22.03714 24.31842,44.07427 16.86953,34.75086 19.27946,40.68393
    16.65044,43.22668 -4.60078,4.91598 -9.85881,0.67806 -17.52678,-14.06986
    -33.95813,-66.61995 -36.58715,-72.55302 -32.20546,-75.77384 2.40993,-1.86468
    3.94353,-1.35613 8.76338,2.54275 z m -44.25512,24.57988 c 4.60079,5.255
    25.19475,57.80509 25.19475,63.90768 0,6.44163 -9.42065,9.66244
    -15.33593,5.0855 -5.03895,-4.06839 -26.290171,-56.95751 -26.290171,-65.43333
    0,-10.17099 9.201561,-12.20518 16.431351,-3.55985 z m 35.05357,-1.18662 c
    4.16262,6.27211 33.95814,81.87644 33.95814,86.11434 0,6.27211
    -10.0779,9.49292 -15.11684,4.74646 -3.0672,-2.88178 -35.27265,-83.40207
    -35.27265,-88.31805 0,-8.47582 11.3924,-10.17099 16.43135,-2.54275 z" />
</svg>
